<mxfile host="Electron" modified="2024-06-30T02:09:37.942Z" agent="Mozilla/5.0 (Windows NT 10.0; Win64; x64) AppleWebKit/537.36 (KHTML, like Gecko) draw.io/24.4.8 Chrome/124.0.6367.207 Electron/30.0.6 Safari/537.36" etag="F81Jf1RQVwGsce1UnNYV" version="24.4.8" type="device">
  <diagram id="C5RBs43oDa-KdzZeNtuy" name="Page-1">
    <mxGraphModel dx="1150" dy="711" grid="1" gridSize="10" guides="1" tooltips="1" connect="1" arrows="1" fold="1" page="1" pageScale="1" pageWidth="827" pageHeight="1169" math="0" shadow="0">
      <root>
        <mxCell id="WIyWlLk6GJQsqaUBKTNV-0" />
        <mxCell id="WIyWlLk6GJQsqaUBKTNV-1" parent="WIyWlLk6GJQsqaUBKTNV-0" />
        <mxCell id="NPUB0Dpm49pCcXDq72dA-6" style="edgeStyle=orthogonalEdgeStyle;rounded=0;orthogonalLoop=1;jettySize=auto;html=1;exitX=0.5;exitY=1;exitDx=0;exitDy=0;endArrow=block;endFill=0;" edge="1" parent="WIyWlLk6GJQsqaUBKTNV-1" source="NPUB0Dpm49pCcXDq72dA-0" target="NPUB0Dpm49pCcXDq72dA-3">
          <mxGeometry relative="1" as="geometry" />
        </mxCell>
        <mxCell id="NPUB0Dpm49pCcXDq72dA-7" style="edgeStyle=orthogonalEdgeStyle;rounded=0;orthogonalLoop=1;jettySize=auto;html=1;entryX=0.5;entryY=0;entryDx=0;entryDy=0;endArrow=block;endFill=0;" edge="1" parent="WIyWlLk6GJQsqaUBKTNV-1" source="NPUB0Dpm49pCcXDq72dA-0" target="NPUB0Dpm49pCcXDq72dA-4">
          <mxGeometry relative="1" as="geometry" />
        </mxCell>
        <mxCell id="NPUB0Dpm49pCcXDq72dA-9" style="edgeStyle=orthogonalEdgeStyle;rounded=0;orthogonalLoop=1;jettySize=auto;html=1;endArrow=block;endFill=0;" edge="1" parent="WIyWlLk6GJQsqaUBKTNV-1" source="NPUB0Dpm49pCcXDq72dA-0" target="NPUB0Dpm49pCcXDq72dA-5">
          <mxGeometry relative="1" as="geometry">
            <Array as="points">
              <mxPoint x="380" y="120" />
              <mxPoint x="540" y="120" />
            </Array>
          </mxGeometry>
        </mxCell>
        <mxCell id="NPUB0Dpm49pCcXDq72dA-0" value="输入的内容" style="rounded=1;whiteSpace=wrap;html=1;fontSize=12;glass=0;strokeWidth=1;shadow=0;" vertex="1" parent="WIyWlLk6GJQsqaUBKTNV-1">
          <mxGeometry x="320" y="40" width="120" height="40" as="geometry" />
        </mxCell>
        <mxCell id="NPUB0Dpm49pCcXDq72dA-23" style="edgeStyle=orthogonalEdgeStyle;rounded=0;orthogonalLoop=1;jettySize=auto;html=1;exitX=0.5;exitY=1;exitDx=0;exitDy=0;endArrow=block;endFill=0;" edge="1" parent="WIyWlLk6GJQsqaUBKTNV-1" source="NPUB0Dpm49pCcXDq72dA-3" target="NPUB0Dpm49pCcXDq72dA-22">
          <mxGeometry relative="1" as="geometry" />
        </mxCell>
        <mxCell id="NPUB0Dpm49pCcXDq72dA-3" value="操作数" style="rounded=1;whiteSpace=wrap;html=1;fontSize=12;glass=0;strokeWidth=1;shadow=0;" vertex="1" parent="WIyWlLk6GJQsqaUBKTNV-1">
          <mxGeometry x="160" y="160" width="120" height="40" as="geometry" />
        </mxCell>
        <mxCell id="NPUB0Dpm49pCcXDq72dA-18" style="edgeStyle=orthogonalEdgeStyle;rounded=0;orthogonalLoop=1;jettySize=auto;html=1;exitX=0.5;exitY=1;exitDx=0;exitDy=0;entryX=0.5;entryY=0;entryDx=0;entryDy=0;endArrow=block;endFill=0;" edge="1" parent="WIyWlLk6GJQsqaUBKTNV-1" source="NPUB0Dpm49pCcXDq72dA-4" target="NPUB0Dpm49pCcXDq72dA-16">
          <mxGeometry relative="1" as="geometry" />
        </mxCell>
        <mxCell id="NPUB0Dpm49pCcXDq72dA-4" value="操作符" style="rounded=1;whiteSpace=wrap;html=1;fontSize=12;glass=0;strokeWidth=1;shadow=0;" vertex="1" parent="WIyWlLk6GJQsqaUBKTNV-1">
          <mxGeometry x="320" y="160" width="120" height="40" as="geometry" />
        </mxCell>
        <mxCell id="NPUB0Dpm49pCcXDq72dA-36" style="edgeStyle=orthogonalEdgeStyle;rounded=0;orthogonalLoop=1;jettySize=auto;html=1;exitX=0.5;exitY=1;exitDx=0;exitDy=0;entryX=1;entryY=0.5;entryDx=0;entryDy=0;endArrow=block;endFill=0;" edge="1" parent="WIyWlLk6GJQsqaUBKTNV-1" source="NPUB0Dpm49pCcXDq72dA-5" target="NPUB0Dpm49pCcXDq72dA-16">
          <mxGeometry relative="1" as="geometry" />
        </mxCell>
        <mxCell id="NPUB0Dpm49pCcXDq72dA-5" value="退格、清除、&lt;div&gt;取消进入&lt;/div&gt;" style="rounded=1;whiteSpace=wrap;html=1;fontSize=12;glass=0;strokeWidth=1;shadow=0;" vertex="1" parent="WIyWlLk6GJQsqaUBKTNV-1">
          <mxGeometry x="480" y="160" width="120" height="40" as="geometry" />
        </mxCell>
        <mxCell id="NPUB0Dpm49pCcXDq72dA-14" value="更新界面" style="rounded=1;whiteSpace=wrap;html=1;fontSize=12;glass=0;strokeWidth=1;shadow=0;" vertex="1" parent="WIyWlLk6GJQsqaUBKTNV-1">
          <mxGeometry x="320" y="400" width="120" height="40" as="geometry" />
        </mxCell>
        <mxCell id="NPUB0Dpm49pCcXDq72dA-38" style="edgeStyle=orthogonalEdgeStyle;rounded=0;orthogonalLoop=1;jettySize=auto;html=1;exitX=0.5;exitY=1;exitDx=0;exitDy=0;entryX=0.5;entryY=0;entryDx=0;entryDy=0;endArrow=block;endFill=0;" edge="1" parent="WIyWlLk6GJQsqaUBKTNV-1" source="NPUB0Dpm49pCcXDq72dA-16" target="NPUB0Dpm49pCcXDq72dA-14">
          <mxGeometry relative="1" as="geometry" />
        </mxCell>
        <mxCell id="NPUB0Dpm49pCcXDq72dA-16" value="更新模型" style="rounded=1;whiteSpace=wrap;html=1;fontSize=12;glass=0;strokeWidth=1;shadow=0;" vertex="1" parent="WIyWlLk6GJQsqaUBKTNV-1">
          <mxGeometry x="320" y="280" width="120" height="40" as="geometry" />
        </mxCell>
        <mxCell id="NPUB0Dpm49pCcXDq72dA-28" value="否" style="edgeStyle=orthogonalEdgeStyle;rounded=0;orthogonalLoop=1;jettySize=auto;html=1;exitX=1;exitY=0.5;exitDx=0;exitDy=0;entryX=0;entryY=0.5;entryDx=0;entryDy=0;endArrow=block;endFill=0;" edge="1" parent="WIyWlLk6GJQsqaUBKTNV-1" source="NPUB0Dpm49pCcXDq72dA-22" target="NPUB0Dpm49pCcXDq72dA-16">
          <mxGeometry relative="1" as="geometry" />
        </mxCell>
        <mxCell id="NPUB0Dpm49pCcXDq72dA-29" style="edgeStyle=orthogonalEdgeStyle;rounded=0;orthogonalLoop=1;jettySize=auto;html=1;exitX=0.5;exitY=1;exitDx=0;exitDy=0;entryX=0.5;entryY=0;entryDx=0;entryDy=0;endArrow=block;endFill=0;" edge="1" parent="WIyWlLk6GJQsqaUBKTNV-1" source="NPUB0Dpm49pCcXDq72dA-22" target="NPUB0Dpm49pCcXDq72dA-27">
          <mxGeometry relative="1" as="geometry" />
        </mxCell>
        <mxCell id="NPUB0Dpm49pCcXDq72dA-30" value="是" style="edgeLabel;html=1;align=center;verticalAlign=middle;resizable=0;points=[];" vertex="1" connectable="0" parent="NPUB0Dpm49pCcXDq72dA-29">
          <mxGeometry y="1" relative="1" as="geometry">
            <mxPoint as="offset" />
          </mxGeometry>
        </mxCell>
        <mxCell id="NPUB0Dpm49pCcXDq72dA-22" value="是否新数字" style="rhombus;whiteSpace=wrap;html=1;" vertex="1" parent="WIyWlLk6GJQsqaUBKTNV-1">
          <mxGeometry x="180" y="260" width="80" height="80" as="geometry" />
        </mxCell>
        <mxCell id="NPUB0Dpm49pCcXDq72dA-37" style="edgeStyle=orthogonalEdgeStyle;rounded=0;orthogonalLoop=1;jettySize=auto;html=1;exitX=1;exitY=0.5;exitDx=0;exitDy=0;entryX=0;entryY=0.5;entryDx=0;entryDy=0;endArrow=blockThin;endFill=0;" edge="1" parent="WIyWlLk6GJQsqaUBKTNV-1" source="NPUB0Dpm49pCcXDq72dA-27" target="NPUB0Dpm49pCcXDq72dA-14">
          <mxGeometry relative="1" as="geometry" />
        </mxCell>
        <mxCell id="NPUB0Dpm49pCcXDq72dA-27" value="重置模型" style="rounded=1;whiteSpace=wrap;html=1;fontSize=12;glass=0;strokeWidth=1;shadow=0;" vertex="1" parent="WIyWlLk6GJQsqaUBKTNV-1">
          <mxGeometry x="160" y="400" width="120" height="40" as="geometry" />
        </mxCell>
        <mxCell id="NPUB0Dpm49pCcXDq72dA-43" style="edgeStyle=orthogonalEdgeStyle;rounded=0;orthogonalLoop=1;jettySize=auto;html=1;exitX=0.5;exitY=1;exitDx=0;exitDy=0;endArrow=block;endFill=0;" edge="1" parent="WIyWlLk6GJQsqaUBKTNV-1" source="NPUB0Dpm49pCcXDq72dA-39" target="NPUB0Dpm49pCcXDq72dA-40">
          <mxGeometry relative="1" as="geometry" />
        </mxCell>
        <mxCell id="NPUB0Dpm49pCcXDq72dA-44" style="edgeStyle=orthogonalEdgeStyle;rounded=0;orthogonalLoop=1;jettySize=auto;html=1;exitX=0.5;exitY=1;exitDx=0;exitDy=0;endArrow=block;endFill=0;" edge="1" parent="WIyWlLk6GJQsqaUBKTNV-1" source="NPUB0Dpm49pCcXDq72dA-39" target="NPUB0Dpm49pCcXDq72dA-41">
          <mxGeometry relative="1" as="geometry" />
        </mxCell>
        <mxCell id="NPUB0Dpm49pCcXDq72dA-39" value="模型变更" style="rounded=1;whiteSpace=wrap;html=1;fontSize=12;glass=0;strokeWidth=1;shadow=0;" vertex="1" parent="WIyWlLk6GJQsqaUBKTNV-1">
          <mxGeometry x="320" y="560" width="120" height="40" as="geometry" />
        </mxCell>
        <mxCell id="NPUB0Dpm49pCcXDq72dA-60" style="edgeStyle=orthogonalEdgeStyle;rounded=0;orthogonalLoop=1;jettySize=auto;html=1;exitX=0;exitY=0.5;exitDx=0;exitDy=0;endArrow=block;endFill=0;" edge="1" parent="WIyWlLk6GJQsqaUBKTNV-1" source="NPUB0Dpm49pCcXDq72dA-40">
          <mxGeometry relative="1" as="geometry">
            <mxPoint x="140" y="800" as="targetPoint" />
          </mxGeometry>
        </mxCell>
        <mxCell id="NPUB0Dpm49pCcXDq72dA-40" value="操作数" style="rounded=1;whiteSpace=wrap;html=1;fontSize=12;glass=0;strokeWidth=1;shadow=0;" vertex="1" parent="WIyWlLk6GJQsqaUBKTNV-1">
          <mxGeometry x="240" y="680" width="120" height="40" as="geometry" />
        </mxCell>
        <mxCell id="NPUB0Dpm49pCcXDq72dA-47" style="edgeStyle=orthogonalEdgeStyle;rounded=0;orthogonalLoop=1;jettySize=auto;html=1;exitX=0.5;exitY=1;exitDx=0;exitDy=0;endArrow=block;endFill=0;" edge="1" parent="WIyWlLk6GJQsqaUBKTNV-1" source="NPUB0Dpm49pCcXDq72dA-41" target="NPUB0Dpm49pCcXDq72dA-45">
          <mxGeometry relative="1" as="geometry" />
        </mxCell>
        <mxCell id="NPUB0Dpm49pCcXDq72dA-49" style="edgeStyle=orthogonalEdgeStyle;rounded=0;orthogonalLoop=1;jettySize=auto;html=1;exitX=0.5;exitY=1;exitDx=0;exitDy=0;entryX=0.5;entryY=0;entryDx=0;entryDy=0;endArrow=block;endFill=0;" edge="1" parent="WIyWlLk6GJQsqaUBKTNV-1" source="NPUB0Dpm49pCcXDq72dA-41" target="NPUB0Dpm49pCcXDq72dA-48">
          <mxGeometry relative="1" as="geometry" />
        </mxCell>
        <mxCell id="NPUB0Dpm49pCcXDq72dA-41" value="操作符" style="rounded=1;whiteSpace=wrap;html=1;fontSize=12;glass=0;strokeWidth=1;shadow=0;" vertex="1" parent="WIyWlLk6GJQsqaUBKTNV-1">
          <mxGeometry x="400" y="680" width="120" height="40" as="geometry" />
        </mxCell>
        <mxCell id="NPUB0Dpm49pCcXDq72dA-52" style="edgeStyle=orthogonalEdgeStyle;rounded=0;orthogonalLoop=1;jettySize=auto;html=1;exitX=0.5;exitY=1;exitDx=0;exitDy=0;entryX=0.5;entryY=0;entryDx=0;entryDy=0;endArrow=block;endFill=0;" edge="1" parent="WIyWlLk6GJQsqaUBKTNV-1" source="NPUB0Dpm49pCcXDq72dA-45" target="NPUB0Dpm49pCcXDq72dA-50">
          <mxGeometry relative="1" as="geometry" />
        </mxCell>
        <mxCell id="NPUB0Dpm49pCcXDq72dA-70" style="edgeStyle=orthogonalEdgeStyle;rounded=0;orthogonalLoop=1;jettySize=auto;html=1;exitX=0.5;exitY=1;exitDx=0;exitDy=0;entryX=1;entryY=0.5;entryDx=0;entryDy=0;endArrow=block;endFill=0;" edge="1" parent="WIyWlLk6GJQsqaUBKTNV-1" source="NPUB0Dpm49pCcXDq72dA-45" target="NPUB0Dpm49pCcXDq72dA-58">
          <mxGeometry relative="1" as="geometry" />
        </mxCell>
        <mxCell id="NPUB0Dpm49pCcXDq72dA-45" value="操作数入操作数栈" style="rounded=1;whiteSpace=wrap;html=1;fontSize=12;glass=0;strokeWidth=1;shadow=0;" vertex="1" parent="WIyWlLk6GJQsqaUBKTNV-1">
          <mxGeometry x="240" y="800" width="120" height="40" as="geometry" />
        </mxCell>
        <mxCell id="NPUB0Dpm49pCcXDq72dA-48" value="操作符入操作符栈" style="rounded=1;whiteSpace=wrap;html=1;fontSize=12;glass=0;strokeWidth=1;shadow=0;" vertex="1" parent="WIyWlLk6GJQsqaUBKTNV-1">
          <mxGeometry x="400" y="800" width="120" height="40" as="geometry" />
        </mxCell>
        <mxCell id="NPUB0Dpm49pCcXDq72dA-65" style="edgeStyle=orthogonalEdgeStyle;rounded=0;orthogonalLoop=1;jettySize=auto;html=1;exitX=1;exitY=0.5;exitDx=0;exitDy=0;entryX=1;entryY=0.5;entryDx=0;entryDy=0;endArrow=block;endFill=0;" edge="1" parent="WIyWlLk6GJQsqaUBKTNV-1" source="NPUB0Dpm49pCcXDq72dA-50" target="NPUB0Dpm49pCcXDq72dA-41">
          <mxGeometry relative="1" as="geometry" />
        </mxCell>
        <mxCell id="NPUB0Dpm49pCcXDq72dA-66" value="否" style="edgeLabel;html=1;align=center;verticalAlign=middle;resizable=0;points=[];" vertex="1" connectable="0" parent="NPUB0Dpm49pCcXDq72dA-65">
          <mxGeometry x="-0.6745" relative="1" as="geometry">
            <mxPoint as="offset" />
          </mxGeometry>
        </mxCell>
        <mxCell id="NPUB0Dpm49pCcXDq72dA-67" style="edgeStyle=orthogonalEdgeStyle;rounded=0;orthogonalLoop=1;jettySize=auto;html=1;exitX=0.5;exitY=1;exitDx=0;exitDy=0;entryX=0.5;entryY=0;entryDx=0;entryDy=0;endArrow=block;endFill=0;" edge="1" parent="WIyWlLk6GJQsqaUBKTNV-1" source="NPUB0Dpm49pCcXDq72dA-50" target="NPUB0Dpm49pCcXDq72dA-51">
          <mxGeometry relative="1" as="geometry" />
        </mxCell>
        <mxCell id="NPUB0Dpm49pCcXDq72dA-68" value="是" style="edgeLabel;html=1;align=center;verticalAlign=middle;resizable=0;points=[];" vertex="1" connectable="0" parent="NPUB0Dpm49pCcXDq72dA-67">
          <mxGeometry x="0.2599" y="-1" relative="1" as="geometry">
            <mxPoint as="offset" />
          </mxGeometry>
        </mxCell>
        <mxCell id="NPUB0Dpm49pCcXDq72dA-50" value="操作数栈数&lt;div&gt;量&amp;gt;=2&lt;/div&gt;" style="rhombus;whiteSpace=wrap;html=1;" vertex="1" parent="WIyWlLk6GJQsqaUBKTNV-1">
          <mxGeometry x="340" y="900" width="80" height="80" as="geometry" />
        </mxCell>
        <mxCell id="NPUB0Dpm49pCcXDq72dA-64" style="edgeStyle=orthogonalEdgeStyle;rounded=0;orthogonalLoop=1;jettySize=auto;html=1;entryX=0.5;entryY=0;entryDx=0;entryDy=0;endArrow=block;endFill=0;" edge="1" parent="WIyWlLk6GJQsqaUBKTNV-1" source="NPUB0Dpm49pCcXDq72dA-51" target="NPUB0Dpm49pCcXDq72dA-54">
          <mxGeometry relative="1" as="geometry" />
        </mxCell>
        <mxCell id="NPUB0Dpm49pCcXDq72dA-51" value="执行一次计算服务" style="rounded=1;whiteSpace=wrap;html=1;fontSize=12;glass=0;strokeWidth=1;shadow=0;" vertex="1" parent="WIyWlLk6GJQsqaUBKTNV-1">
          <mxGeometry x="320" y="1040" width="120" height="40" as="geometry" />
        </mxCell>
        <mxCell id="NPUB0Dpm49pCcXDq72dA-54" value="更新模型" style="rounded=1;whiteSpace=wrap;html=1;fontSize=12;glass=0;strokeWidth=1;shadow=0;" vertex="1" parent="WIyWlLk6GJQsqaUBKTNV-1">
          <mxGeometry x="320" y="1120" width="120" height="40" as="geometry" />
        </mxCell>
        <mxCell id="NPUB0Dpm49pCcXDq72dA-58" value="是否新数字=true" style="rounded=1;whiteSpace=wrap;html=1;fontSize=12;glass=0;strokeWidth=1;shadow=0;" vertex="1" parent="WIyWlLk6GJQsqaUBKTNV-1">
          <mxGeometry x="80" y="920" width="120" height="40" as="geometry" />
        </mxCell>
        <mxCell id="NPUB0Dpm49pCcXDq72dA-59" value="是否新数字=false" style="rounded=1;whiteSpace=wrap;html=1;fontSize=12;glass=0;strokeWidth=1;shadow=0;" vertex="1" parent="WIyWlLk6GJQsqaUBKTNV-1">
          <mxGeometry x="80" y="800" width="120" height="40" as="geometry" />
        </mxCell>
      </root>
    </mxGraphModel>
  </diagram>
</mxfile>
